<svg viewBox="0 0 400 180" xmlns="http://www.w3.org/2000/svg" font-family="Helvetica, Arial, sans-serif">
  <rect x="4" y="4" width="392" height="172" rx="12" fill="#dbe9fb" stroke="#2e6fd9" stroke-width="2"/>
  <text x="20" y="34" font-size="16" font-weight="600" fill="#1a1a1a">SALA SOPRA</text>
  <circle cx="292" cy="28" r="12" fill="#2e6fd9"/>
  <text x="292" y="32" font-size="11" fill="#fff" text-anchor="middle">❄</text>
  <circle cx="320" cy="28" r="12" fill="#fff" stroke="#999"/>
  <text x="320" y="32" font-size="11" fill="#999" text-anchor="middle">💧</text>
  <circle cx="348" cy="28" r="12" fill="#2e9c4f"/>
  <text x="348" y="32" font-size="11" fill="#fff" text-anchor="middle">⏻</text>
  <rect x="365" y="16" width="26" height="24" rx="12" fill="#fff" stroke="#999"/>
  <text x="378" y="32" font-size="10" fill="#333" text-anchor="middle">1</text>

  <rect x="20" y="56" width="360" height="60" rx="10" fill="none" stroke="#9ab8e6" stroke-width="1"/>
  <line x1="200" y1="56" x2="200" y2="116" stroke="#9ab8e6" stroke-width="1"/>
  <text x="110" y="74" font-size="10" fill="#555" text-anchor="middle">clima</text>
  <text x="110" y="98" font-size="20" font-weight="600" fill="#1a1a1a" text-anchor="middle">26°</text>
  <text x="290" y="74" font-size="10" fill="#555" text-anchor="middle">target</text>
  <circle cx="262" cy="96" r="9" fill="#fff" stroke="#999"/>
  <text x="262" y="100" font-size="11" fill="#333" text-anchor="middle">-</text>
  <text x="290" y="100" font-size="18" font-weight="600" fill="#1a1a1a" text-anchor="middle">25.3°</text>
  <circle cx="318" cy="96" r="9" fill="#fff" stroke="#999"/>
  <text x="318" y="100" font-size="11" fill="#333" text-anchor="middle">+</text>

  <line x1="20" y1="140" x2="380" y2="140" stroke="#c9d9ee" stroke-width="1"/>
  <text x="20" y="158" font-size="13" fill="#333">🚪 Porta aperta</text>
  <text x="380" y="158" font-size="13" fill="#2e7d32" font-weight="600" text-anchor="end">Sì</text>
</svg>
